<svg width="84" height="23" viewBox="0 0 84 23" fill="none" xmlns="http://www.w3.org/2000/svg">
<path d="M34.5893 18.7228H34.552C34.5688 18.7228 34.58 18.7415 34.5968 18.7433H34.608L34.5893 18.7247V18.7228ZM34.5968 18.7433C34.4232 18.7452 33.9864 18.8367 33.5253 18.8367C32.0693 18.8367 31.5653 18.1647 31.5653 17.2873V11.4428H34.5333C34.7013 11.4428 34.832 11.2935 34.832 11.0881V7.9148C34.832 7.7468 34.6827 7.59746 34.5333 7.59746H31.5653V3.6588C31.5653 3.50946 31.472 3.41613 31.304 3.41613H27.272C27.104 3.41613 27.0107 3.50946 27.0107 3.6588V7.70946C27.0107 7.70946 24.976 8.21346 24.8453 8.23213C24.696 8.26946 24.6027 8.40013 24.6027 8.54946V11.0881C24.6027 11.2935 24.752 11.4428 24.92 11.4428H26.992V17.5655C26.992 22.1201 30.1653 22.5868 32.3307 22.5868C33.32 22.5868 34.5147 22.2695 34.7013 22.1761C34.8133 22.1388 34.8693 22.0081 34.8693 21.8775V19.0775C34.8719 18.998 34.8458 18.9204 34.7957 18.8587C34.7457 18.7969 34.675 18.7553 34.5968 18.7415V18.7433ZM78.8293 14.6348C78.8293 11.2561 77.4667 10.8081 76.0293 10.9575C74.9093 11.0321 74.0133 11.5921 74.0133 11.5921V18.1628C74.0133 18.1628 74.928 18.7975 76.2907 18.8348C78.2133 18.8908 78.8293 18.2001 78.8293 14.6348ZM83.3653 14.3361C83.3653 20.7388 81.2933 22.5681 77.672 22.5681C74.6107 22.5681 72.968 21.0188 72.968 21.0188C72.968 21.0188 72.8933 21.8775 72.8 21.9895C72.744 22.1015 72.6507 22.1388 72.5387 22.1388H69.776C69.5893 22.1388 69.4213 21.9895 69.4213 21.8215L69.4587 1.0828C69.4587 0.914797 69.608 0.765464 69.776 0.765464H73.752C73.92 0.765464 74.0693 0.914797 74.0693 1.0828V8.12013C74.0693 8.12013 75.6 7.1308 77.84 7.1308L77.8213 7.09346C80.0613 7.09346 83.3653 7.93346 83.3653 14.3361ZM67.088 7.59746H63.168C62.9627 7.59746 62.8507 7.7468 62.8507 7.95213V18.1068C62.8507 18.1068 61.824 18.8348 60.424 18.8348C59.024 18.8348 58.6133 18.2001 58.6133 16.8001V7.93346C58.6133 7.76546 58.464 7.61613 58.296 7.61613H54.3013C54.1333 7.61613 53.984 7.76546 53.984 7.93346V17.4721C53.984 21.5788 56.28 22.6055 59.4347 22.6055C62.0293 22.6055 64.1387 21.1681 64.1387 21.1681C64.1387 21.1681 64.232 21.8961 64.288 22.0081C64.3253 22.1015 64.456 22.1761 64.5867 22.1761H67.088C67.2933 22.1761 67.4053 22.0268 67.4053 21.8588L67.4427 7.9148C67.4427 7.7468 67.2933 7.59746 67.088 7.59746ZM22.848 7.5788H18.872C18.704 7.5788 18.5547 7.7468 18.5547 7.95213V21.6535C18.5547 22.0268 18.7973 22.1575 19.1147 22.1575H22.6987C23.072 22.1575 23.1653 21.9895 23.1653 21.6535V7.89613C23.1653 7.72813 23.016 7.5788 22.848 7.5788ZM20.888 1.26946C19.4507 1.26946 18.312 2.40813 18.312 3.84546C18.312 5.2828 19.4507 6.42146 20.888 6.42146C22.288 6.42146 23.4267 5.2828 23.4267 3.84546C23.4267 2.40813 22.288 1.26946 20.888 1.26946ZM51.6693 0.802797H47.7307C47.5627 0.802797 47.4133 0.95213 47.4133 1.12013V8.7548H41.2347V1.12013C41.2347 0.95213 41.0853 0.802797 40.9173 0.802797H36.9413C36.7733 0.802797 36.624 0.95213 36.624 1.12013V21.8588C36.624 22.0268 36.792 22.1761 36.9413 22.1761H40.9173C41.0853 22.1761 41.2347 22.0268 41.2347 21.8588V12.9921H47.4133L47.376 21.8588C47.376 22.0268 47.5253 22.1761 47.6933 22.1761H51.6693C51.8373 22.1761 51.9867 22.0268 51.9867 21.8588V1.12013C51.9867 0.95213 51.8373 0.802797 51.6693 0.802797ZM16.4453 9.9868V20.7015C16.4453 20.7761 16.4267 20.9068 16.3333 20.9441C16.3333 20.9441 14 22.6055 10.1547 22.6055C5.50667 22.6055 0 21.1495 0 11.5548C0 1.96013 4.816 -0.0185364 9.52 0.000130273C13.5893 0.000130273 15.232 0.914797 15.4933 1.0828C15.568 1.17613 15.6053 1.2508 15.6053 1.34413L14.8213 4.6668C14.8213 4.8348 14.6533 5.04013 14.448 4.98413C13.776 4.7788 12.768 4.36813 10.3973 4.36813C7.65333 4.36813 4.704 5.15213 4.704 11.3308C4.704 17.5095 7.504 18.2375 9.52 18.2375C11.2373 18.2375 11.8533 18.0321 11.8533 18.0321V13.7388H9.10933C8.904 13.7388 8.75467 13.5895 8.75467 13.4215V9.9868C8.75467 9.8188 8.904 9.66946 9.10933 9.66946H16.0907C16.296 9.66946 16.4453 9.8188 16.4453 9.9868Z" fill="white"/>
</svg>
